<svg id="visual" viewBox="0 0 960 540" width="960" height="540" xmlns="http://www.w3.org/2000/svg" xmlns:xlink="http://www.w3.org/1999/xlink" version="1.1"><g stroke-width="1" stroke-linejoin="bevel"><path d="M497 284L499 301L562 268Z" fill="#003efe" stroke="#003efe"></path><path d="M499 301L532 352L562 268Z" fill="#0057ff" stroke="#0057ff"></path><path d="M562 268L482 239L497 284Z" fill="#004bff" stroke="#004bff"></path><path d="M497 284L429 338L499 301Z" fill="#0057ff" stroke="#0057ff"></path><path d="M609 276L596 247L562 268Z" fill="#0087ff" stroke="#0087ff"></path><path d="M562 268L525 203L482 239Z" fill="#0057ff" stroke="#0057ff"></path><path d="M608 331L609 276L562 268Z" fill="#0076ff" stroke="#0076ff"></path><path d="M429 338L499 366L499 301Z" fill="#0087ff" stroke="#0087ff"></path><path d="M499 301L499 366L532 352Z" fill="#0b15fa" stroke="#0b15fa"></path><path d="M596 247L525 203L562 268Z" fill="#004bff" stroke="#004bff"></path><path d="M583 365L608 331L532 352Z" fill="#004bff" stroke="#004bff"></path><path d="M532 352L608 331L562 268Z" fill="#0076ff" stroke="#0076ff"></path><path d="M510 410L583 365L532 352Z" fill="#0057ff" stroke="#0057ff"></path><path d="M525 203L478 210L482 239Z" fill="#0062ff" stroke="#0062ff"></path><path d="M405 276L429 338L497 284Z" fill="#006cff" stroke="#006cff"></path><path d="M660 347L635 295L608 331Z" fill="#078fff" stroke="#078fff"></path><path d="M608 331L635 295L609 276Z" fill="#0062ff" stroke="#0062ff"></path><path d="M609 276L628 211L596 247Z" fill="#007eff" stroke="#007eff"></path><path d="M628 211L596 195L596 247Z" fill="#0b15fa" stroke="#0b15fa"></path><path d="M596 247L596 195L525 203Z" fill="#003efe" stroke="#003efe"></path><path d="M405 276L497 284L482 239Z" fill="#0062ff" stroke="#0062ff"></path><path d="M484 177L467 193L478 210Z" fill="#006cff" stroke="#006cff"></path><path d="M402 251L405 276L482 239Z" fill="#0062ff" stroke="#0062ff"></path><path d="M484 177L478 210L525 203Z" fill="#007eff" stroke="#007eff"></path><path d="M558 160L484 177L525 203Z" fill="#007eff" stroke="#007eff"></path><path d="M662 218L628 211L609 276Z" fill="#0b15fa" stroke="#0b15fa"></path><path d="M458 425L510 410L499 366Z" fill="#0b15fa" stroke="#0b15fa"></path><path d="M499 366L510 410L532 352Z" fill="#003efe" stroke="#003efe"></path><path d="M628 211L592 176L596 195Z" fill="#006cff" stroke="#006cff"></path><path d="M596 195L558 160L525 203Z" fill="#007eff" stroke="#007eff"></path><path d="M402 251L482 239L478 210Z" fill="#0062ff" stroke="#0062ff"></path><path d="M569 161L558 160L596 195Z" fill="#0057ff" stroke="#0057ff"></path><path d="M592 176L569 161L596 195Z" fill="#0087ff" stroke="#0087ff"></path><path d="M405 276L398 286L429 338Z" fill="#002efd" stroke="#002efd"></path><path d="M356 346L430 376L429 338Z" fill="#007eff" stroke="#007eff"></path><path d="M429 338L430 376L499 366Z" fill="#007eff" stroke="#007eff"></path><path d="M405 276L395 283L398 286Z" fill="#007eff" stroke="#007eff"></path><path d="M467 193L402 251L478 210Z" fill="#007eff" stroke="#007eff"></path><path d="M360 237L402 251L358 212Z" fill="#004bff" stroke="#004bff"></path><path d="M402 251L395 283L405 276Z" fill="#0057ff" stroke="#0057ff"></path><path d="M398 286L356 346L429 338Z" fill="#0b15fa" stroke="#0b15fa"></path><path d="M688 385L660 347L583 365Z" fill="#007eff" stroke="#007eff"></path><path d="M583 365L660 347L608 331Z" fill="#078fff" stroke="#078fff"></path><path d="M635 295L662 218L609 276Z" fill="#0057ff" stroke="#0057ff"></path><path d="M493 462L527 431L510 410Z" fill="#078fff" stroke="#078fff"></path><path d="M510 410L527 431L583 365Z" fill="#0b15fa" stroke="#0b15fa"></path><path d="M569 161L559 144L558 160Z" fill="#0087ff" stroke="#0087ff"></path><path d="M558 160L531 122L484 177Z" fill="#0b15fa" stroke="#0b15fa"></path><path d="M577 138L559 144L569 161Z" fill="#006cff" stroke="#006cff"></path><path d="M680 290L662 218L635 295Z" fill="#0087ff" stroke="#0087ff"></path><path d="M628 211L634 141L592 176Z" fill="#0b15fa" stroke="#0b15fa"></path><path d="M592 176L584 145L569 161Z" fill="#078fff" stroke="#078fff"></path><path d="M660 347L680 290L635 295Z" fill="#002efd" stroke="#002efd"></path><path d="M634 141L584 145L592 176Z" fill="#007eff" stroke="#007eff"></path><path d="M430 376L458 425L499 366Z" fill="#0062ff" stroke="#0062ff"></path><path d="M635 115L577 138L584 145Z" fill="#006cff" stroke="#006cff"></path><path d="M584 145L577 138L569 161Z" fill="#002efd" stroke="#002efd"></path><path d="M430 376L435 417L458 425Z" fill="#007eff" stroke="#007eff"></path><path d="M330 389L435 417L430 376Z" fill="#004bff" stroke="#004bff"></path><path d="M549 94L531 122L559 144Z" fill="#0057ff" stroke="#0057ff"></path><path d="M559 144L531 122L558 160Z" fill="#078fff" stroke="#078fff"></path><path d="M358 212L402 251L467 193Z" fill="#007eff" stroke="#007eff"></path><path d="M722 255L681 198L662 218Z" fill="#004bff" stroke="#004bff"></path><path d="M662 218L681 198L628 211Z" fill="#007eff" stroke="#007eff"></path><path d="M407 459L438 438L435 417Z" fill="#003efe" stroke="#003efe"></path><path d="M435 417L438 438L458 425Z" fill="#0b15fa" stroke="#0b15fa"></path><path d="M458 425L493 462L510 410Z" fill="#003efe" stroke="#003efe"></path><path d="M438 438L493 462L458 425Z" fill="#0062ff" stroke="#0062ff"></path><path d="M702 348L705 333L660 347Z" fill="#003efe" stroke="#003efe"></path><path d="M702 348L660 347L688 385Z" fill="#003efe" stroke="#003efe"></path><path d="M660 347L705 333L680 290Z" fill="#0087ff" stroke="#0087ff"></path><path d="M680 290L722 255L662 218Z" fill="#002efd" stroke="#002efd"></path><path d="M684 167L634 141L628 211Z" fill="#002efd" stroke="#002efd"></path><path d="M577 138L549 94L559 144Z" fill="#0062ff" stroke="#0062ff"></path><path d="M688 385L583 365L670 449Z" fill="#004bff" stroke="#004bff"></path><path d="M402 251L355 246L395 283Z" fill="#002efd" stroke="#002efd"></path><path d="M395 283L348 295L398 286Z" fill="#002efd" stroke="#002efd"></path><path d="M439 128L467 193L484 177Z" fill="#0057ff" stroke="#0057ff"></path><path d="M360 237L355 246L402 251Z" fill="#078fff" stroke="#078fff"></path><path d="M611 466L583 365L527 431Z" fill="#004bff" stroke="#004bff"></path><path d="M355 246L348 295L395 283Z" fill="#002efd" stroke="#002efd"></path><path d="M348 295L356 346L398 286Z" fill="#078fff" stroke="#078fff"></path><path d="M531 122L439 128L484 177Z" fill="#0076ff" stroke="#0076ff"></path><path d="M362 150L358 212L467 193Z" fill="#003efe" stroke="#003efe"></path><path d="M360 237L330 211L355 246Z" fill="#003efe" stroke="#003efe"></path><path d="M355 246L309 296L348 295Z" fill="#003efe" stroke="#003efe"></path><path d="M724 334L723 268L705 333Z" fill="#004bff" stroke="#004bff"></path><path d="M705 333L723 268L680 290Z" fill="#0057ff" stroke="#0057ff"></path><path d="M723 268L722 255L680 290Z" fill="#006cff" stroke="#006cff"></path><path d="M744 146L684 167L681 198Z" fill="#0087ff" stroke="#0087ff"></path><path d="M681 198L684 167L628 211Z" fill="#004bff" stroke="#004bff"></path><path d="M599 481L611 466L527 431Z" fill="#0087ff" stroke="#0087ff"></path><path d="M630 98L549 94L577 138Z" fill="#0057ff" stroke="#0057ff"></path><path d="M531 122L471 32L439 128Z" fill="#003efe" stroke="#003efe"></path><path d="M635 115L584 145L634 141Z" fill="#006cff" stroke="#006cff"></path><path d="M740 370L724 334L702 348Z" fill="#078fff" stroke="#078fff"></path><path d="M702 348L724 334L705 333Z" fill="#002efd" stroke="#002efd"></path><path d="M684 167L635 115L634 141Z" fill="#0087ff" stroke="#0087ff"></path><path d="M567 501L599 481L527 431Z" fill="#078fff" stroke="#078fff"></path><path d="M670 449L709 403L688 385Z" fill="#002efd" stroke="#002efd"></path><path d="M670 449L583 365L611 466Z" fill="#006cff" stroke="#006cff"></path><path d="M688 385L728 386L702 348Z" fill="#078fff" stroke="#078fff"></path><path d="M640 483L670 449L611 466Z" fill="#003efe" stroke="#003efe"></path><path d="M328 425L407 459L435 417Z" fill="#0b15fa" stroke="#0b15fa"></path><path d="M438 438L421 504L493 462Z" fill="#002efd" stroke="#002efd"></path><path d="M493 462L567 501L527 431Z" fill="#0087ff" stroke="#0087ff"></path><path d="M401 85L413 112L471 32Z" fill="#078fff" stroke="#078fff"></path><path d="M439 128L362 150L467 193Z" fill="#0b15fa" stroke="#0b15fa"></path><path d="M661 71L630 98L635 115Z" fill="#0087ff" stroke="#0087ff"></path><path d="M635 115L630 98L577 138Z" fill="#003efe" stroke="#003efe"></path><path d="M550 540L567 501L493 462Z" fill="#007eff" stroke="#007eff"></path><path d="M630 496L640 483L611 466Z" fill="#0087ff" stroke="#0087ff"></path><path d="M314 190L330 211L358 212Z" fill="#078fff" stroke="#078fff"></path><path d="M358 212L330 211L360 237Z" fill="#006cff" stroke="#006cff"></path><path d="M348 295L309 296L356 346Z" fill="#006cff" stroke="#006cff"></path><path d="M709 403L728 386L688 385Z" fill="#003efe" stroke="#003efe"></path><path d="M762 238L745 234L723 268Z" fill="#0087ff" stroke="#0087ff"></path><path d="M793 486L728 386L709 403Z" fill="#002efd" stroke="#002efd"></path><path d="M723 268L745 234L722 255Z" fill="#007eff" stroke="#007eff"></path><path d="M722 255L745 234L681 198Z" fill="#078fff" stroke="#078fff"></path><path d="M684 167L661 71L635 115Z" fill="#078fff" stroke="#078fff"></path><path d="M762 238L723 268L787 275Z" fill="#078fff" stroke="#078fff"></path><path d="M413 112L362 150L439 128Z" fill="#004bff" stroke="#004bff"></path><path d="M630 496L611 466L599 481Z" fill="#0076ff" stroke="#0076ff"></path><path d="M670 449L681 478L709 403Z" fill="#006cff" stroke="#006cff"></path><path d="M728 386L740 370L702 348Z" fill="#004bff" stroke="#004bff"></path><path d="M280 282L309 296L285 221Z" fill="#0062ff" stroke="#0062ff"></path><path d="M356 346L330 389L430 376Z" fill="#0b15fa" stroke="#0b15fa"></path><path d="M401 85L401 105L413 112Z" fill="#006cff" stroke="#006cff"></path><path d="M413 112L377 120L362 150Z" fill="#003efe" stroke="#003efe"></path><path d="M269 315L330 389L356 346Z" fill="#002efd" stroke="#002efd"></path><path d="M401 105L377 120L413 112Z" fill="#0b15fa" stroke="#0b15fa"></path><path d="M362 150L314 190L358 212Z" fill="#0057ff" stroke="#0057ff"></path><path d="M587 517L630 496L599 481Z" fill="#0057ff" stroke="#0057ff"></path><path d="M640 483L681 478L670 449Z" fill="#0b15fa" stroke="#0b15fa"></path><path d="M787 275L723 268L724 334Z" fill="#0057ff" stroke="#0057ff"></path><path d="M745 234L744 146L681 198Z" fill="#0076ff" stroke="#0076ff"></path><path d="M567 501L587 517L599 481Z" fill="#004bff" stroke="#004bff"></path><path d="M550 540L587 517L567 501Z" fill="#0062ff" stroke="#0062ff"></path><path d="M630 98L562 55L549 94Z" fill="#002efd" stroke="#002efd"></path><path d="M471 32L413 112L439 128Z" fill="#0b15fa" stroke="#0b15fa"></path><path d="M296 168L314 190L362 150Z" fill="#004bff" stroke="#004bff"></path><path d="M285 221L309 296L355 246Z" fill="#0057ff" stroke="#0057ff"></path><path d="M697 497L640 483L630 496Z" fill="#004bff" stroke="#004bff"></path><path d="M697 497L681 478L640 483Z" fill="#002efd" stroke="#002efd"></path><path d="M793 486L809 347L740 370Z" fill="#002efd" stroke="#002efd"></path><path d="M401 105L401 85L377 120Z" fill="#006cff" stroke="#006cff"></path><path d="M313 111L296 168L362 150Z" fill="#078fff" stroke="#078fff"></path><path d="M504 32L531 122L549 94Z" fill="#0062ff" stroke="#0062ff"></path><path d="M415 524L421 504L386 540Z" fill="#004bff" stroke="#004bff"></path><path d="M407 459L421 504L438 438Z" fill="#0087ff" stroke="#0087ff"></path><path d="M209 432L328 425L330 389Z" fill="#007eff" stroke="#007eff"></path><path d="M330 389L328 425L435 417Z" fill="#007eff" stroke="#007eff"></path><path d="M462 540L550 540L493 462Z" fill="#0057ff" stroke="#0057ff"></path><path d="M587 517L582 540L630 496Z" fill="#0087ff" stroke="#0087ff"></path><path d="M734 96L661 71L684 167Z" fill="#0062ff" stroke="#0062ff"></path><path d="M630 98L624 26L562 55Z" fill="#002efd" stroke="#002efd"></path><path d="M285 221L355 246L330 211Z" fill="#0087ff" stroke="#0087ff"></path><path d="M309 296L269 315L356 346Z" fill="#002efd" stroke="#002efd"></path><path d="M809 347L787 275L724 334Z" fill="#0b15fa" stroke="#0b15fa"></path><path d="M785 153L744 146L795 167Z" fill="#0076ff" stroke="#0076ff"></path><path d="M744 146L745 234L795 167Z" fill="#003efe" stroke="#003efe"></path><path d="M550 540L582 540L587 517Z" fill="#006cff" stroke="#006cff"></path><path d="M314 190L285 221L330 211Z" fill="#007eff" stroke="#007eff"></path><path d="M269 200L285 221L314 190Z" fill="#0b15fa" stroke="#0b15fa"></path><path d="M535 7L504 32L562 55Z" fill="#0057ff" stroke="#0057ff"></path><path d="M562 55L504 32L549 94Z" fill="#004bff" stroke="#004bff"></path><path d="M449 540L462 540L421 504Z" fill="#007eff" stroke="#007eff"></path><path d="M421 504L462 540L493 462Z" fill="#007eff" stroke="#007eff"></path><path d="M329 483L421 504L407 459Z" fill="#003efe" stroke="#003efe"></path><path d="M504 32L471 32L531 122Z" fill="#0057ff" stroke="#0057ff"></path><path d="M256 283L269 315L280 282Z" fill="#0b15fa" stroke="#0b15fa"></path><path d="M280 282L269 315L309 296Z" fill="#0087ff" stroke="#0087ff"></path><path d="M446 540L449 540L421 504Z" fill="#0057ff" stroke="#0057ff"></path><path d="M313 111L362 150L377 120Z" fill="#078fff" stroke="#078fff"></path><path d="M710 540L697 497L630 496Z" fill="#002efd" stroke="#002efd"></path><path d="M681 478L697 497L709 403Z" fill="#078fff" stroke="#078fff"></path><path d="M827 284L814 269L787 275Z" fill="#0057ff" stroke="#0057ff"></path><path d="M415 524L446 540L421 504Z" fill="#0087ff" stroke="#0087ff"></path><path d="M624 26L566 22L562 55Z" fill="#0076ff" stroke="#0076ff"></path><path d="M504 32L451 0L471 32Z" fill="#0b15fa" stroke="#0b15fa"></path><path d="M550 540L530 560L582 540Z" fill="#0b15fa" stroke="#0b15fa"></path><path d="M582 540L710 540L630 496Z" fill="#0062ff" stroke="#0062ff"></path><path d="M462 540L530 560L550 540Z" fill="#006cff" stroke="#006cff"></path><path d="M464 559L530 560L462 540Z" fill="#002efd" stroke="#002efd"></path><path d="M464 559L462 540L449 540Z" fill="#0087ff" stroke="#0087ff"></path><path d="M249 213L260 253L285 221Z" fill="#007eff" stroke="#007eff"></path><path d="M285 221L260 253L280 282Z" fill="#0057ff" stroke="#0057ff"></path><path d="M260 253L256 283L280 282Z" fill="#0057ff" stroke="#0057ff"></path><path d="M664 0L624 26L661 71Z" fill="#078fff" stroke="#078fff"></path><path d="M661 71L624 26L630 98Z" fill="#003efe" stroke="#003efe"></path><path d="M296 168L269 200L314 190Z" fill="#0b15fa" stroke="#0b15fa"></path><path d="M799 113L734 96L744 146Z" fill="#0076ff" stroke="#0076ff"></path><path d="M744 146L734 96L684 167Z" fill="#0b15fa" stroke="#0b15fa"></path><path d="M405 540L464 559L446 540Z" fill="#078fff" stroke="#078fff"></path><path d="M446 540L464 559L449 540Z" fill="#007eff" stroke="#007eff"></path><path d="M547 0L535 7L566 22Z" fill="#004bff" stroke="#004bff"></path><path d="M566 22L535 7L562 55Z" fill="#003efe" stroke="#003efe"></path><path d="M328 425L329 483L407 459Z" fill="#007eff" stroke="#007eff"></path><path d="M415 524L405 540L446 540Z" fill="#0087ff" stroke="#0087ff"></path><path d="M308 508L329 483L258 496Z" fill="#003efe" stroke="#003efe"></path><path d="M329 483L328 425L258 496Z" fill="#007eff" stroke="#007eff"></path><path d="M386 540L405 540L415 524Z" fill="#0076ff" stroke="#0076ff"></path><path d="M809 347L724 334L740 370Z" fill="#0087ff" stroke="#0087ff"></path><path d="M787 275L814 269L762 238Z" fill="#0087ff" stroke="#0087ff"></path><path d="M332 83L313 111L377 120Z" fill="#004bff" stroke="#004bff"></path><path d="M296 168L260 187L269 200Z" fill="#006cff" stroke="#006cff"></path><path d="M332 83L377 120L401 85Z" fill="#006cff" stroke="#006cff"></path><path d="M793 486L740 370L728 386Z" fill="#0076ff" stroke="#0076ff"></path><path d="M795 167L745 234L762 238Z" fill="#004bff" stroke="#004bff"></path><path d="M451 0L400 34L471 32Z" fill="#003efe" stroke="#003efe"></path><path d="M471 32L400 34L401 85Z" fill="#004bff" stroke="#004bff"></path><path d="M350 50L332 83L401 85Z" fill="#002efd" stroke="#002efd"></path><path d="M568 0L547 0L566 22Z" fill="#078fff" stroke="#078fff"></path><path d="M535 7L451 0L504 32Z" fill="#004bff" stroke="#004bff"></path><path d="M814 269L795 167L762 238Z" fill="#007eff" stroke="#007eff"></path><path d="M611 0L568 0L566 22Z" fill="#0087ff" stroke="#0087ff"></path><path d="M277 107L296 168L313 111Z" fill="#004bff" stroke="#004bff"></path><path d="M277 107L260 187L296 168Z" fill="#078fff" stroke="#078fff"></path><path d="M269 200L249 213L285 221Z" fill="#078fff" stroke="#078fff"></path><path d="M210 289L216 309L256 283Z" fill="#0076ff" stroke="#0076ff"></path><path d="M329 483L386 540L421 504Z" fill="#007eff" stroke="#007eff"></path><path d="M405 540L386 540L464 559Z" fill="#0b15fa" stroke="#0b15fa"></path><path d="M260 187L249 213L269 200Z" fill="#002efd" stroke="#002efd"></path><path d="M809 347L827 284L787 275Z" fill="#002efd" stroke="#002efd"></path><path d="M814 269L864 216L795 167Z" fill="#004bff" stroke="#004bff"></path><path d="M664 0L611 0L624 26Z" fill="#078fff" stroke="#078fff"></path><path d="M624 26L611 0L566 22Z" fill="#007eff" stroke="#007eff"></path><path d="M547 0L451 0L535 7Z" fill="#0087ff" stroke="#0087ff"></path><path d="M400 34L350 50L401 85Z" fill="#0087ff" stroke="#0087ff"></path><path d="M332 83L277 107L313 111Z" fill="#0087ff" stroke="#0087ff"></path><path d="M371 0L350 50L400 34Z" fill="#0057ff" stroke="#0057ff"></path><path d="M530 560L710 540L582 540Z" fill="#004bff" stroke="#004bff"></path><path d="M697 497L793 486L709 403Z" fill="#004bff" stroke="#004bff"></path><path d="M530 560L716 540L710 540Z" fill="#007eff" stroke="#007eff"></path><path d="M710 540L716 540L697 497Z" fill="#0062ff" stroke="#0062ff"></path><path d="M292 0L277 107L332 83Z" fill="#002efd" stroke="#002efd"></path><path d="M260 187L222 178L249 213Z" fill="#006cff" stroke="#006cff"></path><path d="M219 344L330 389L269 315Z" fill="#003efe" stroke="#003efe"></path><path d="M329 483L349 546L386 540Z" fill="#0b15fa" stroke="#0b15fa"></path><path d="M336 540L349 546L329 483Z" fill="#078fff" stroke="#078fff"></path><path d="M386 540L349 546L464 559Z" fill="#007eff" stroke="#007eff"></path><path d="M702 0L664 0L661 71Z" fill="#078fff" stroke="#078fff"></path><path d="M727 22L661 71L734 96Z" fill="#0062ff" stroke="#0062ff"></path><path d="M210 289L256 283L260 253Z" fill="#006cff" stroke="#006cff"></path><path d="M256 283L216 309L269 315Z" fill="#0b15fa" stroke="#0b15fa"></path><path d="M210 289L260 253L174 227Z" fill="#0062ff" stroke="#0062ff"></path><path d="M216 309L219 344L269 315Z" fill="#0062ff" stroke="#0062ff"></path><path d="M829 132L799 113L785 153Z" fill="#006cff" stroke="#006cff"></path><path d="M785 153L799 113L744 146Z" fill="#0076ff" stroke="#0076ff"></path><path d="M829 132L785 153L795 167Z" fill="#078fff" stroke="#078fff"></path><path d="M308 508L336 540L329 483Z" fill="#006cff" stroke="#006cff"></path><path d="M859 378L848 340L809 347Z" fill="#004bff" stroke="#004bff"></path><path d="M809 347L848 340L827 284Z" fill="#0087ff" stroke="#0087ff"></path><path d="M827 284L854 262L814 269Z" fill="#006cff" stroke="#006cff"></path><path d="M871 289L854 262L827 284Z" fill="#006cff" stroke="#006cff"></path><path d="M174 227L260 253L249 213Z" fill="#002efd" stroke="#002efd"></path><path d="M216 309L199 340L219 344Z" fill="#0b15fa" stroke="#0b15fa"></path><path d="M745 540L793 486L697 497Z" fill="#0076ff" stroke="#0076ff"></path><path d="M298 523L308 527L308 508Z" fill="#0b15fa" stroke="#0b15fa"></path><path d="M308 508L308 527L336 540Z" fill="#004bff" stroke="#004bff"></path><path d="M530 560L745 540L716 540Z" fill="#002efd" stroke="#002efd"></path><path d="M716 540L745 540L697 497Z" fill="#002efd" stroke="#002efd"></path><path d="M277 107L222 178L260 187Z" fill="#0087ff" stroke="#0087ff"></path><path d="M753 43L727 22L734 96Z" fill="#007eff" stroke="#007eff"></path><path d="M785 72L753 43L734 96Z" fill="#0b15fa" stroke="#0b15fa"></path><path d="M530 560L747 540L745 540Z" fill="#078fff" stroke="#078fff"></path><path d="M745 540L791 507L793 486Z" fill="#0076ff" stroke="#0076ff"></path><path d="M451 0L371 0L400 34Z" fill="#007eff" stroke="#007eff"></path><path d="M350 50L304 0L332 83Z" fill="#007eff" stroke="#007eff"></path><path d="M258 496L298 523L308 508Z" fill="#078fff" stroke="#078fff"></path><path d="M308 527L215 540L336 540Z" fill="#003efe" stroke="#003efe"></path><path d="M336 540L188 556L349 546Z" fill="#0b15fa" stroke="#0b15fa"></path><path d="M794 75L785 72L799 113Z" fill="#0057ff" stroke="#0057ff"></path><path d="M799 113L785 72L734 96Z" fill="#0087ff" stroke="#0087ff"></path><path d="M727 22L702 0L661 71Z" fill="#003efe" stroke="#003efe"></path><path d="M828 0L702 0L727 22Z" fill="#003efe" stroke="#003efe"></path><path d="M862 163L829 132L795 167Z" fill="#002efd" stroke="#002efd"></path><path d="M785 72L822 44L753 43Z" fill="#0076ff" stroke="#0076ff"></path><path d="M753 43L828 0L727 22Z" fill="#006cff" stroke="#006cff"></path><path d="M812 86L794 75L799 113Z" fill="#0076ff" stroke="#0076ff"></path><path d="M210 289L199 340L216 309Z" fill="#0057ff" stroke="#0057ff"></path><path d="M215 453L258 496L328 425Z" fill="#0057ff" stroke="#0057ff"></path><path d="M167 356L199 340L137 322Z" fill="#004bff" stroke="#004bff"></path><path d="M371 0L357 0L350 50Z" fill="#0057ff" stroke="#0057ff"></path><path d="M208 164L201 186L222 178Z" fill="#0062ff" stroke="#0062ff"></path><path d="M848 340L871 289L827 284Z" fill="#006cff" stroke="#006cff"></path><path d="M854 262L864 216L814 269Z" fill="#007eff" stroke="#007eff"></path><path d="M868 344L871 289L848 340Z" fill="#0076ff" stroke="#0076ff"></path><path d="M747 540L791 507L745 540Z" fill="#002efd" stroke="#002efd"></path><path d="M866 428L859 378L809 347Z" fill="#002efd" stroke="#002efd"></path><path d="M866 428L809 347L793 486Z" fill="#004bff" stroke="#004bff"></path><path d="M878 228L864 216L854 262Z" fill="#002efd" stroke="#002efd"></path><path d="M859 378L868 344L848 340Z" fill="#002efd" stroke="#002efd"></path><path d="M209 432L330 389L219 344Z" fill="#0b15fa" stroke="#0b15fa"></path><path d="M829 132L812 86L799 113Z" fill="#003efe" stroke="#003efe"></path><path d="M794 75L822 44L785 72Z" fill="#0076ff" stroke="#0076ff"></path><path d="M853 120L812 86L829 132Z" fill="#006cff" stroke="#006cff"></path><path d="M208 164L222 178L216 109Z" fill="#006cff" stroke="#006cff"></path><path d="M222 178L201 186L249 213Z" fill="#002efd" stroke="#002efd"></path><path d="M216 109L222 178L277 107Z" fill="#007eff" stroke="#007eff"></path><path d="M907 246L878 228L854 262Z" fill="#0076ff" stroke="#0076ff"></path><path d="M864 216L862 163L795 167Z" fill="#0076ff" stroke="#0076ff"></path><path d="M907 246L854 262L871 289Z" fill="#003efe" stroke="#003efe"></path><path d="M357 0L327 3L350 50Z" fill="#0087ff" stroke="#0087ff"></path><path d="M885 193L862 163L864 216Z" fill="#0087ff" stroke="#0087ff"></path><path d="M167 356L209 432L219 344Z" fill="#003efe" stroke="#003efe"></path><path d="M166 158L184 211L201 186Z" fill="#0057ff" stroke="#0057ff"></path><path d="M201 186L184 211L249 213Z" fill="#078fff" stroke="#078fff"></path><path d="M199 340L167 356L219 344Z" fill="#004bff" stroke="#004bff"></path><path d="M209 432L215 453L328 425Z" fill="#0062ff" stroke="#0062ff"></path><path d="M859 378L888 392L868 344Z" fill="#078fff" stroke="#078fff"></path><path d="M868 344L896 289L871 289Z" fill="#006cff" stroke="#006cff"></path><path d="M849 506L866 428L793 486Z" fill="#0076ff" stroke="#0076ff"></path><path d="M877 116L853 120L862 163Z" fill="#002efd" stroke="#002efd"></path><path d="M862 163L853 120L829 132Z" fill="#0062ff" stroke="#0062ff"></path><path d="M919 313L896 289L868 344Z" fill="#0076ff" stroke="#0076ff"></path><path d="M878 228L885 193L864 216Z" fill="#0062ff" stroke="#0062ff"></path><path d="M140 163L174 227L184 211Z" fill="#002efd" stroke="#002efd"></path><path d="M184 211L174 227L249 213Z" fill="#003efe" stroke="#003efe"></path><path d="M222 98L216 109L277 107Z" fill="#007eff" stroke="#007eff"></path><path d="M208 164L166 158L201 186Z" fill="#0062ff" stroke="#0062ff"></path><path d="M211 77L222 98L277 107Z" fill="#002efd" stroke="#002efd"></path><path d="M907 246L885 193L878 228Z" fill="#003efe" stroke="#003efe"></path><path d="M357 0L304 0L327 3Z" fill="#0057ff" stroke="#0057ff"></path><path d="M327 3L304 0L350 50Z" fill="#007eff" stroke="#007eff"></path><path d="M866 428L888 392L859 378Z" fill="#0057ff" stroke="#0057ff"></path><path d="M137 322L199 340L210 289Z" fill="#002efd" stroke="#002efd"></path><path d="M209 432L188 480L215 453Z" fill="#0076ff" stroke="#0076ff"></path><path d="M304 0L292 0L332 83Z" fill="#004bff" stroke="#004bff"></path><path d="M931 288L907 246L896 289Z" fill="#003efe" stroke="#003efe"></path><path d="M896 289L907 246L871 289Z" fill="#078fff" stroke="#078fff"></path><path d="M845 53L822 44L812 86Z" fill="#004bff" stroke="#004bff"></path><path d="M812 86L822 44L794 75Z" fill="#004bff" stroke="#004bff"></path><path d="M845 53L812 86L853 120Z" fill="#003efe" stroke="#003efe"></path><path d="M747 540L818 540L791 507Z" fill="#0087ff" stroke="#0087ff"></path><path d="M791 507L849 506L793 486Z" fill="#003efe" stroke="#003efe"></path><path d="M866 428L936 445L888 392Z" fill="#0062ff" stroke="#0062ff"></path><path d="M530 560L818 540L747 540Z" fill="#0062ff" stroke="#0062ff"></path><path d="M818 540L849 506L791 507Z" fill="#0057ff" stroke="#0057ff"></path><path d="M292 0L211 77L277 107Z" fill="#006cff" stroke="#006cff"></path><path d="M222 98L211 77L216 109Z" fill="#0062ff" stroke="#0062ff"></path><path d="M216 109L166 158L208 164Z" fill="#0076ff" stroke="#0076ff"></path><path d="M890 61L877 116L935 83Z" fill="#002efd" stroke="#002efd"></path><path d="M885 193L877 116L862 163Z" fill="#0076ff" stroke="#0076ff"></path><path d="M888 392L919 313L868 344Z" fill="#006cff" stroke="#006cff"></path><path d="M928 298L960 329L960 299Z" fill="#004bff" stroke="#004bff"></path><path d="M127 104L166 158L216 109Z" fill="#0062ff" stroke="#0062ff"></path><path d="M137 322L148 362L167 356Z" fill="#007eff" stroke="#007eff"></path><path d="M877 116L845 53L853 120Z" fill="#003efe" stroke="#003efe"></path><path d="M139 261L210 289L174 227Z" fill="#007eff" stroke="#007eff"></path><path d="M154 394L161 414L209 432Z" fill="#003efe" stroke="#003efe"></path><path d="M154 394L209 432L167 356Z" fill="#0b15fa" stroke="#0b15fa"></path><path d="M215 453L188 480L258 496Z" fill="#0057ff" stroke="#0057ff"></path><path d="M148 362L154 394L167 356Z" fill="#0057ff" stroke="#0057ff"></path><path d="M142 439L188 480L209 432Z" fill="#0057ff" stroke="#0057ff"></path><path d="M258 496L215 540L298 523Z" fill="#078fff" stroke="#078fff"></path><path d="M298 523L215 540L308 527Z" fill="#0062ff" stroke="#0062ff"></path><path d="M115 227L139 261L174 227Z" fill="#078fff" stroke="#078fff"></path><path d="M928 298L919 313L960 329Z" fill="#078fff" stroke="#078fff"></path><path d="M919 313L928 298L896 289Z" fill="#003efe" stroke="#003efe"></path><path d="M960 123L877 116L885 193Z" fill="#0087ff" stroke="#0087ff"></path><path d="M139 261L137 322L210 289Z" fill="#003efe" stroke="#003efe"></path><path d="M148 362L144 404L154 394Z" fill="#002efd" stroke="#002efd"></path><path d="M928 298L931 288L896 289Z" fill="#006cff" stroke="#006cff"></path><path d="M139 261L132 316L137 322Z" fill="#0b15fa" stroke="#0b15fa"></path><path d="M137 322L97 349L148 362Z" fill="#0062ff" stroke="#0062ff"></path><path d="M188 480L215 540L258 496Z" fill="#0062ff" stroke="#0062ff"></path><path d="M349 546L188 556L464 559Z" fill="#006cff" stroke="#006cff"></path><path d="M97 349L144 404L148 362Z" fill="#003efe" stroke="#003efe"></path><path d="M154 394L144 404L161 414Z" fill="#0057ff" stroke="#0057ff"></path><path d="M161 414L142 439L209 432Z" fill="#078fff" stroke="#078fff"></path><path d="M160 540L188 556L215 540Z" fill="#007eff" stroke="#007eff"></path><path d="M118 157L140 163L127 104Z" fill="#006cff" stroke="#006cff"></path><path d="M166 158L140 163L184 211Z" fill="#006cff" stroke="#006cff"></path><path d="M139 261L76 272L132 316Z" fill="#078fff" stroke="#078fff"></path><path d="M870 0L828 0L845 53Z" fill="#0076ff" stroke="#0076ff"></path><path d="M845 53L828 0L822 44Z" fill="#0076ff" stroke="#0076ff"></path><path d="M822 44L828 0L753 43Z" fill="#0b15fa" stroke="#0b15fa"></path><path d="M95 435L142 439L144 404Z" fill="#0062ff" stroke="#0062ff"></path><path d="M144 404L142 439L161 414Z" fill="#003efe" stroke="#003efe"></path><path d="M140 163L115 227L174 227Z" fill="#0062ff" stroke="#0062ff"></path><path d="M132 316L97 349L137 322Z" fill="#002efd" stroke="#002efd"></path><path d="M877 116L890 61L845 53Z" fill="#0062ff" stroke="#0062ff"></path><path d="M960 208L885 193L907 246Z" fill="#0b15fa" stroke="#0b15fa"></path><path d="M928 298L960 299L931 288Z" fill="#0076ff" stroke="#0076ff"></path><path d="M931 288L960 213L907 246Z" fill="#002efd" stroke="#002efd"></path><path d="M960 329L919 313L960 357Z" fill="#0076ff" stroke="#0076ff"></path><path d="M292 0L216 0L211 77Z" fill="#006cff" stroke="#006cff"></path><path d="M127 104L140 163L166 158Z" fill="#006cff" stroke="#006cff"></path><path d="M960 357L919 313L888 392Z" fill="#078fff" stroke="#078fff"></path><path d="M960 524L920 481L960 540Z" fill="#004bff" stroke="#004bff"></path><path d="M849 506L920 481L866 428Z" fill="#0087ff" stroke="#0087ff"></path><path d="M920 481L936 445L866 428Z" fill="#0062ff" stroke="#0062ff"></path><path d="M960 364L960 357L888 392Z" fill="#0062ff" stroke="#0062ff"></path><path d="M960 299L960 213L931 288Z" fill="#007eff" stroke="#007eff"></path><path d="M936 445L960 364L888 392Z" fill="#078fff" stroke="#078fff"></path><path d="M127 104L216 109L211 77Z" fill="#0057ff" stroke="#0057ff"></path><path d="M140 163L118 157L115 227Z" fill="#0076ff" stroke="#0076ff"></path><path d="M960 213L960 208L907 246Z" fill="#003efe" stroke="#003efe"></path><path d="M160 540L215 540L188 480Z" fill="#078fff" stroke="#078fff"></path><path d="M215 540L188 556L336 540Z" fill="#0062ff" stroke="#0062ff"></path><path d="M464 559L188 556L530 560Z" fill="#003efe" stroke="#003efe"></path><path d="M76 272L139 261L115 227Z" fill="#002efd" stroke="#002efd"></path><path d="M76 272L97 349L132 316Z" fill="#0062ff" stroke="#0062ff"></path><path d="M142 439L160 540L188 480Z" fill="#006cff" stroke="#006cff"></path><path d="M871 0L845 53L890 61Z" fill="#002efd" stroke="#002efd"></path><path d="M871 0L870 0L845 53Z" fill="#004bff" stroke="#004bff"></path><path d="M905 25L871 0L890 61Z" fill="#002efd" stroke="#002efd"></path><path d="M152 0L127 104L211 77Z" fill="#078fff" stroke="#078fff"></path><path d="M70 215L89 220L79 148Z" fill="#0b15fa" stroke="#0b15fa"></path><path d="M118 157L89 220L115 227Z" fill="#007eff" stroke="#007eff"></path><path d="M103 540L160 540L142 439Z" fill="#004bff" stroke="#004bff"></path><path d="M960 123L935 83L877 116Z" fill="#006cff" stroke="#006cff"></path><path d="M935 83L905 25L890 61Z" fill="#0b15fa" stroke="#0b15fa"></path><path d="M89 220L76 272L115 227Z" fill="#0b15fa" stroke="#0b15fa"></path><path d="M960 208L960 123L885 193Z" fill="#004bff" stroke="#004bff"></path><path d="M960 29L921 0L905 25Z" fill="#0076ff" stroke="#0076ff"></path><path d="M74 418L95 435L144 404Z" fill="#0057ff" stroke="#0057ff"></path><path d="M74 418L144 404L97 349Z" fill="#0062ff" stroke="#0062ff"></path><path d="M969 447L982 394L936 445Z" fill="#0062ff" stroke="#0062ff"></path><path d="M936 445L982 394L960 364Z" fill="#078fff" stroke="#078fff"></path><path d="M960 364L982 394L960 357Z" fill="#006cff" stroke="#006cff"></path><path d="M960 357L982 394L960 329Z" fill="#003efe" stroke="#003efe"></path><path d="M960 329L982 394L960 299Z" fill="#003efe" stroke="#003efe"></path><path d="M960 299L982 394L960 213Z" fill="#003efe" stroke="#003efe"></path><path d="M960 213L982 394L960 208Z" fill="#078fff" stroke="#078fff"></path><path d="M960 208L982 394L960 123Z" fill="#006cff" stroke="#006cff"></path><path d="M982 394L960 111L960 123Z" fill="#004bff" stroke="#004bff"></path><path d="M960 123L960 111L935 83Z" fill="#002efd" stroke="#002efd"></path><path d="M960 482L969 447L936 445Z" fill="#0b15fa" stroke="#0b15fa"></path><path d="M89 220L70 215L76 272Z" fill="#0057ff" stroke="#0057ff"></path><path d="M79 148L89 220L118 157Z" fill="#0057ff" stroke="#0057ff"></path><path d="M960 524L960 482L920 481Z" fill="#0057ff" stroke="#0057ff"></path><path d="M920 481L960 482L936 445Z" fill="#0b15fa" stroke="#0b15fa"></path><path d="M85 114L118 157L127 104Z" fill="#0062ff" stroke="#0062ff"></path><path d="M85 114L79 148L118 157Z" fill="#078fff" stroke="#078fff"></path><path d="M0 320L97 349L76 272Z" fill="#078fff" stroke="#078fff"></path><path d="M0 379L74 418L97 349Z" fill="#0076ff" stroke="#0076ff"></path><path d="M78 522L103 540L142 439Z" fill="#0062ff" stroke="#0062ff"></path><path d="M216 0L152 0L211 77Z" fill="#007eff" stroke="#007eff"></path><path d="M48 63L85 114L127 104Z" fill="#007eff" stroke="#007eff"></path><path d="M152 0L148 0L127 104Z" fill="#0087ff" stroke="#0087ff"></path><path d="M960 29L905 25L935 83Z" fill="#002efd" stroke="#002efd"></path><path d="M905 25L921 0L871 0Z" fill="#003efe" stroke="#003efe"></path><path d="M960 540L920 481L849 506Z" fill="#0062ff" stroke="#0062ff"></path><path d="M960 482L983 540L969 447Z" fill="#0076ff" stroke="#0076ff"></path><path d="M969 447L983 540L982 394Z" fill="#0062ff" stroke="#0062ff"></path><path d="M530 560L960 540L818 540Z" fill="#002efd" stroke="#002efd"></path><path d="M818 540L960 540L849 506Z" fill="#002efd" stroke="#002efd"></path><path d="M960 524L983 540L960 482Z" fill="#007eff" stroke="#007eff"></path><path d="M78 522L142 439L95 435Z" fill="#0087ff" stroke="#0087ff"></path><path d="M160 540L103 540L188 556Z" fill="#0062ff" stroke="#0062ff"></path><path d="M960 111L960 29L935 83Z" fill="#006cff" stroke="#006cff"></path><path d="M982 394L960 29L960 111Z" fill="#0076ff" stroke="#0076ff"></path><path d="M0 203L30 227L70 215Z" fill="#002efd" stroke="#002efd"></path><path d="M70 215L30 227L76 272Z" fill="#0057ff" stroke="#0057ff"></path><path d="M0 235L30 227L0 221Z" fill="#003efe" stroke="#003efe"></path><path d="M74 418L78 522L95 435Z" fill="#0076ff" stroke="#0076ff"></path><path d="M51 540L78 522L40 540Z" fill="#0076ff" stroke="#0076ff"></path><path d="M982 394L960 0L960 29Z" fill="#0087ff" stroke="#0087ff"></path><path d="M960 29L960 0L921 0Z" fill="#0b15fa" stroke="#0b15fa"></path><path d="M148 0L105 0L127 104Z" fill="#0087ff" stroke="#0087ff"></path><path d="M85 114L20 132L79 148Z" fill="#004bff" stroke="#004bff"></path><path d="M530 560L983 540L960 540Z" fill="#007eff" stroke="#007eff"></path><path d="M960 540L983 540L960 524Z" fill="#078fff" stroke="#078fff"></path><path d="M105 0L96 3L127 104Z" fill="#0057ff" stroke="#0057ff"></path><path d="M0 235L76 272L30 227Z" fill="#0b15fa" stroke="#0b15fa"></path><path d="M0 235L0 320L76 272Z" fill="#0087ff" stroke="#0087ff"></path><path d="M96 3L48 63L127 104Z" fill="#0087ff" stroke="#0087ff"></path><path d="M0 203L70 215L79 148Z" fill="#003efe" stroke="#003efe"></path><path d="M48 63L20 132L85 114Z" fill="#0062ff" stroke="#0062ff"></path><path d="M0 213L0 221L30 227Z" fill="#0062ff" stroke="#0062ff"></path><path d="M0 320L0 361L97 349Z" fill="#004bff" stroke="#004bff"></path><path d="M0 203L0 213L30 227Z" fill="#003efe" stroke="#003efe"></path><path d="M20 132L0 203L79 148Z" fill="#004bff" stroke="#004bff"></path><path d="M0 361L0 379L97 349Z" fill="#0076ff" stroke="#0076ff"></path><path d="M0 429L78 522L74 418Z" fill="#0b15fa" stroke="#0b15fa"></path><path d="M78 522L51 540L103 540Z" fill="#0057ff" stroke="#0057ff"></path><path d="M103 540L51 540L188 556Z" fill="#007eff" stroke="#007eff"></path><path d="M-31 204L0 213L0 203Z" fill="#0076ff" stroke="#0076ff"></path><path d="M-31 204L0 221L0 213Z" fill="#003efe" stroke="#003efe"></path><path d="M-31 204L-14 245L0 221Z" fill="#004bff" stroke="#004bff"></path><path d="M0 221L-14 245L0 235Z" fill="#0057ff" stroke="#0057ff"></path><path d="M0 235L-14 245L0 320Z" fill="#007eff" stroke="#007eff"></path><path d="M0 320L-24 374L0 361Z" fill="#003efe" stroke="#003efe"></path><path d="M0 361L-24 374L0 379Z" fill="#0087ff" stroke="#0087ff"></path><path d="M-27 379L0 429L0 379Z" fill="#003efe" stroke="#003efe"></path><path d="M0 379L0 429L74 418Z" fill="#002efd" stroke="#002efd"></path><path d="M0 429L40 540L78 522Z" fill="#004bff" stroke="#004bff"></path><path d="M51 540L40 540L188 556Z" fill="#078fff" stroke="#078fff"></path><path d="M-14 245L-24 374L0 320Z" fill="#003efe" stroke="#003efe"></path><path d="M-19 513L0 537L40 540Z" fill="#0062ff" stroke="#0062ff"></path><path d="M0 85L0 97L48 63Z" fill="#0087ff" stroke="#0087ff"></path><path d="M48 63L0 97L20 132Z" fill="#0057ff" stroke="#0057ff"></path><path d="M20 132L-31 204L0 203Z" fill="#006cff" stroke="#006cff"></path><path d="M-14 245L-27 379L-24 374Z" fill="#007eff" stroke="#007eff"></path><path d="M-24 374L-27 379L0 379Z" fill="#0062ff" stroke="#0062ff"></path><path d="M-31 204L-27 379L-14 245Z" fill="#0057ff" stroke="#0057ff"></path><path d="M0 97L-31 204L20 132Z" fill="#0057ff" stroke="#0057ff"></path><path d="M-9 67L0 85L48 63Z" fill="#078fff" stroke="#078fff"></path><path d="M0 97L-29 65L-31 204Z" fill="#0062ff" stroke="#0062ff"></path><path d="M9 0L-9 67L48 63Z" fill="#078fff" stroke="#078fff"></path><path d="M0 85L-29 65L0 97Z" fill="#003efe" stroke="#003efe"></path><path d="M-19 513L40 540L0 429Z" fill="#006cff" stroke="#006cff"></path><path d="M40 540L0 540L188 556Z" fill="#0062ff" stroke="#0062ff"></path><path d="M-19 513L0 540L0 537Z" fill="#0062ff" stroke="#0062ff"></path><path d="M0 537L0 540L40 540Z" fill="#007eff" stroke="#007eff"></path><path d="M-27 379L-19 513L0 429Z" fill="#0087ff" stroke="#0087ff"></path><path d="M105 0L9 0L96 3Z" fill="#0b15fa" stroke="#0b15fa"></path><path d="M96 3L9 0L48 63Z" fill="#0076ff" stroke="#0076ff"></path><path d="M0 0L-29 65L-9 67Z" fill="#0076ff" stroke="#0076ff"></path><path d="M-9 67L-29 65L0 85Z" fill="#007eff" stroke="#007eff"></path><path d="M9 0L0 0L-9 67Z" fill="#0b15fa" stroke="#0b15fa"></path></g></svg>