<svg id="visual" viewBox="0 0 900 600" width="900" height="600" xmlns="http://www.w3.org/2000/svg" xmlns:xlink="http://www.w3.org/1999/xlink" version="1.1"><g stroke-width="1" stroke-linejoin="bevel"><path d="M408 331L282 296L397 367Z" fill="#fede00" stroke="#fede00"></path><path d="M282 296L295 389L397 367Z" fill="#f98209" stroke="#f98209"></path><path d="M408 331L364 226L282 296Z" fill="#fede00" stroke="#fede00"></path><path d="M195 221L224 294L282 296Z" fill="#fd9700" stroke="#fd9700"></path><path d="M282 296L224 294L295 389Z" fill="#fede00" stroke="#fede00"></path><path d="M295 389L382 484L397 367Z" fill="#fede00" stroke="#fede00"></path><path d="M538 399L534 290L408 331Z" fill="#ffb500" stroke="#ffb500"></path><path d="M364 226L301 166L282 296Z" fill="#fede00" stroke="#fede00"></path><path d="M534 290L460 200L408 331Z" fill="#fea100" stroke="#fea100"></path><path d="M408 331L460 200L364 226Z" fill="#f98209" stroke="#f98209"></path><path d="M364 226L334 139L301 166Z" fill="#ffca00" stroke="#ffca00"></path><path d="M301 166L195 221L282 296Z" fill="#ffab00" stroke="#ffab00"></path><path d="M81 308L164 382L224 294Z" fill="#ffb500" stroke="#ffb500"></path><path d="M224 294L164 382L295 389Z" fill="#fede00" stroke="#fede00"></path><path d="M295 389L291 526L382 484Z" fill="#f98209" stroke="#f98209"></path><path d="M411 98L334 139L364 226Z" fill="#fede00" stroke="#fede00"></path><path d="M301 166L163 116L195 221Z" fill="#fd9700" stroke="#fd9700"></path><path d="M538 399L408 331L397 367Z" fill="#ffab00" stroke="#ffab00"></path><path d="M230 516L291 526L295 389Z" fill="#fea100" stroke="#fea100"></path><path d="M382 484L538 399L397 367Z" fill="#ffca00" stroke="#ffca00"></path><path d="M164 382L230 516L295 389Z" fill="#ffd400" stroke="#ffd400"></path><path d="M382 484L462 525L538 399Z" fill="#ffb500" stroke="#ffb500"></path><path d="M396 600L462 525L382 484Z" fill="#ffab00" stroke="#ffab00"></path><path d="M81 308L117 418L164 382Z" fill="#ffd400" stroke="#ffd400"></path><path d="M164 382L117 418L230 516Z" fill="#ffab00" stroke="#ffab00"></path><path d="M460 200L411 98L364 226Z" fill="#f7770f" stroke="#f7770f"></path><path d="M503 88L411 98L460 200Z" fill="#ffca00" stroke="#ffca00"></path><path d="M462 525L576 409L538 399Z" fill="#f7770f" stroke="#f7770f"></path><path d="M538 399L602 292L534 290Z" fill="#ffca00" stroke="#ffca00"></path><path d="M195 221L81 308L224 294Z" fill="#fd9700" stroke="#fd9700"></path><path d="M602 292L578 221L534 290Z" fill="#f7770f" stroke="#f7770f"></path><path d="M534 290L578 221L460 200Z" fill="#fb8c04" stroke="#fb8c04"></path><path d="M576 409L602 292L538 399Z" fill="#f98209" stroke="#f98209"></path><path d="M267 600L396 600L291 526Z" fill="#ffb500" stroke="#ffb500"></path><path d="M291 526L396 600L382 484Z" fill="#ffb500" stroke="#ffb500"></path><path d="M462 525L628 535L576 409Z" fill="#f98209" stroke="#f98209"></path><path d="M213 0L301 166L334 139Z" fill="#ffd400" stroke="#ffd400"></path><path d="M213 0L163 116L301 166Z" fill="#f7770f" stroke="#f7770f"></path><path d="M195 221L80 199L81 308Z" fill="#ffbf00" stroke="#ffbf00"></path><path d="M232 600L267 600L230 516Z" fill="#ffca00" stroke="#ffca00"></path><path d="M230 516L267 600L291 526Z" fill="#ffb500" stroke="#ffb500"></path><path d="M0 369L92 460L117 418Z" fill="#fea100" stroke="#fea100"></path><path d="M117 418L92 460L230 516Z" fill="#ffb500" stroke="#ffb500"></path><path d="M118 600L232 600L230 516Z" fill="#f98209" stroke="#f98209"></path><path d="M163 116L80 199L195 221Z" fill="#fb8c04" stroke="#fb8c04"></path><path d="M572 127L503 88L460 200Z" fill="#fd9700" stroke="#fd9700"></path><path d="M411 98L317 0L334 139Z" fill="#fd9700" stroke="#fd9700"></path><path d="M682 174L572 127L578 221Z" fill="#fea100" stroke="#fea100"></path><path d="M578 221L572 127L460 200Z" fill="#ffd400" stroke="#ffd400"></path><path d="M396 600L510 600L462 525Z" fill="#fd9700" stroke="#fd9700"></path><path d="M576 409L668 372L602 292Z" fill="#ffd400" stroke="#ffd400"></path><path d="M602 292L682 174L578 221Z" fill="#fede00" stroke="#fede00"></path><path d="M628 535L668 372L576 409Z" fill="#ffb500" stroke="#ffb500"></path><path d="M430 0L317 0L411 98Z" fill="#ffb500" stroke="#ffb500"></path><path d="M107 0L98 94L163 116Z" fill="#ffab00" stroke="#ffab00"></path><path d="M163 116L98 94L80 199Z" fill="#ffd400" stroke="#ffd400"></path><path d="M460 0L430 0L411 98Z" fill="#ffd400" stroke="#ffd400"></path><path d="M460 0L411 98L503 88Z" fill="#ffbf00" stroke="#ffbf00"></path><path d="M81 308L0 369L117 418Z" fill="#fb8c04" stroke="#fb8c04"></path><path d="M92 460L118 600L230 516Z" fill="#fea100" stroke="#fea100"></path><path d="M0 289L0 369L81 308Z" fill="#fb8c04" stroke="#fb8c04"></path><path d="M0 289L81 308L0 229Z" fill="#ffab00" stroke="#ffab00"></path><path d="M0 229L81 308L80 199Z" fill="#fb8c04" stroke="#fb8c04"></path><path d="M0 488L118 600L92 460Z" fill="#ffd400" stroke="#ffd400"></path><path d="M606 0L460 0L503 88Z" fill="#fb8c04" stroke="#fb8c04"></path><path d="M510 600L628 535L462 525Z" fill="#ffb500" stroke="#ffb500"></path><path d="M317 0L213 0L334 139Z" fill="#ffbf00" stroke="#ffbf00"></path><path d="M0 137L0 229L80 199Z" fill="#ffbf00" stroke="#ffbf00"></path><path d="M0 369L0 488L92 460Z" fill="#fd9700" stroke="#fd9700"></path><path d="M715 298L682 174L602 292Z" fill="#f7770f" stroke="#f7770f"></path><path d="M572 127L606 0L503 88Z" fill="#f7770f" stroke="#f7770f"></path><path d="M765 320L715 298L668 372Z" fill="#ffab00" stroke="#ffab00"></path><path d="M668 372L715 298L602 292Z" fill="#fea100" stroke="#fea100"></path><path d="M98 94L0 137L80 199Z" fill="#ffab00" stroke="#ffab00"></path><path d="M0 0L0 137L98 94Z" fill="#fede00" stroke="#fede00"></path><path d="M510 600L628 600L628 535Z" fill="#ffbf00" stroke="#ffbf00"></path><path d="M628 535L727 497L668 372Z" fill="#ffbf00" stroke="#ffbf00"></path><path d="M213 0L107 0L163 116Z" fill="#fea100" stroke="#fea100"></path><path d="M691 600L727 497L628 535Z" fill="#fede00" stroke="#fede00"></path><path d="M729 101L606 0L572 127Z" fill="#fede00" stroke="#fede00"></path><path d="M818 385L765 320L668 372Z" fill="#fea100" stroke="#fea100"></path><path d="M715 298L762 163L682 174Z" fill="#fd9700" stroke="#fd9700"></path><path d="M682 174L729 101L572 127Z" fill="#ffd400" stroke="#ffd400"></path><path d="M0 488L0 600L118 600Z" fill="#ffbf00" stroke="#ffbf00"></path><path d="M628 600L691 600L628 535Z" fill="#fea100" stroke="#fea100"></path><path d="M777 600L765 468L727 497Z" fill="#ffbf00" stroke="#ffbf00"></path><path d="M727 497L765 468L668 372Z" fill="#ffbf00" stroke="#ffbf00"></path><path d="M762 163L729 101L682 174Z" fill="#f7770f" stroke="#f7770f"></path><path d="M765 320L762 163L715 298Z" fill="#fd9700" stroke="#fd9700"></path><path d="M107 0L0 0L98 94Z" fill="#f98209" stroke="#f98209"></path><path d="M765 468L818 385L668 372Z" fill="#ffca00" stroke="#ffca00"></path><path d="M765 320L900 208L762 163Z" fill="#f7770f" stroke="#f7770f"></path><path d="M900 398L818 385L900 505Z" fill="#ffab00" stroke="#ffab00"></path><path d="M786 0L691 0L729 101Z" fill="#f98209" stroke="#f98209"></path><path d="M729 101L691 0L606 0Z" fill="#ffbf00" stroke="#ffbf00"></path><path d="M900 208L772 101L762 163Z" fill="#ffab00" stroke="#ffab00"></path><path d="M762 163L772 101L729 101Z" fill="#ffca00" stroke="#ffca00"></path><path d="M691 600L777 600L727 497Z" fill="#fd9700" stroke="#fd9700"></path><path d="M900 74L786 0L772 101Z" fill="#fea100" stroke="#fea100"></path><path d="M772 101L786 0L729 101Z" fill="#f98209" stroke="#f98209"></path><path d="M900 398L900 290L818 385Z" fill="#f7770f" stroke="#f7770f"></path><path d="M818 385L900 290L765 320Z" fill="#ffab00" stroke="#ffab00"></path><path d="M900 505L818 385L765 468Z" fill="#ffca00" stroke="#ffca00"></path><path d="M900 290L900 208L765 320Z" fill="#fd9700" stroke="#fd9700"></path><path d="M777 600L900 505L765 468Z" fill="#ffd400" stroke="#ffd400"></path><path d="M900 208L900 74L772 101Z" fill="#f7770f" stroke="#f7770f"></path><path d="M777 600L900 600L900 505Z" fill="#fea100" stroke="#fea100"></path><path d="M900 74L900 0L786 0Z" fill="#f7770f" stroke="#f7770f"></path></g></svg>